<?xml version="1.0" standalone="no"?><!DOCTYPE svg PUBLIC "-//W3C//DTD SVG 1.1//EN" "http://www.w3.org/Graphics/SVG/1.1/DTD/svg11.dtd"><svg t="1565086930163" class="icon" viewBox="0 0 1024 1024" version="1.1" xmlns="http://www.w3.org/2000/svg" p-id="1718" xmlns:xlink="http://www.w3.org/1999/xlink" width="200" height="200"><defs><style type="text/css"></style></defs><path d="M153.6 680l417.6-275.2c32-22.4 38.4-67.2 14.4-97.6-4.8-6.4-9.6-11.2-14.4-14.4L153.6 17.6C115.2-8 67.2 24 67.2 73.6V624c0 51.2 48 81.6 86.4 56z m-35.2-83.2V102.4c-1.6-11.2 6.4-22.4 17.6-24 4.8 0 8 0 12.8 3.2l376 248c11.2 8 12.8 24 4.8 35.2l-4.8 4.8-376 248c-9.6 6.4-22.4 1.6-27.2-8-3.2-4.8-4.8-8-3.2-12.8z m752 409.6L451.2 731.2c-32-22.4-38.4-67.2-14.4-97.6 4.8-6.4 9.6-11.2 14.4-14.4L868.8 344c38.4-25.6 86.4 6.4 86.4 56v550.4c1.6 49.6-46.4 81.6-84.8 56z m35.2-84.8V427.2c1.6-11.2-6.4-20.8-17.6-22.4-4.8 0-8 0-12.8 3.2l-376 246.4c-11.2 8-12.8 24-4.8 35.2l4.8 4.8 376 248c9.6 6.4 22.4 1.6 27.2-8 3.2-3.2 4.8-8 3.2-12.8z" p-id="1719"></path></svg>