<svg xmlns="http://www.w3.org/2000/svg" width="183.88" height="172.62" viewBox="0 0 183.88 172.62">
  <defs>
    <style>
      .cls-1 {
        stroke: #000;
        stroke-miterlimit: 10;
        stroke-width: 2px;
      }
    </style>
  </defs>
  <title>我的反馈</title>
  <g id="图层_2" data-name="图层 2">
    <g id="图层_1-2" data-name="图层 1">
      <path class="cls-1" d="M164.13,1h-145C9.13,1,1,9.12,1,18.5V132.25c0,9.38,8.12,17.5,18.13,17.5h50a38.64,38.64,0,0,1,3.13,3.75,8.52,8.52,0,0,1,1.87,2.5A25,25,0,0,0,76,158.5c5.62,8.75,10,13.12,16.88,13.12s11.87-4.37,17.5-13.12c4.37-6.88,5.62-8.75,5.62-8.75h48.75c10,0,18.13-8.12,18.13-17.5V18.5A18.57,18.57,0,0,0,164.13,1Zm9.37,131.25a8.54,8.54,0,0,1-8.75,8.75H115.37a5.58,5.58,0,0,0-3.12.63,16,16,0,0,0-5.63,5.62c-.62,1.25-4.37,6.88-4.37,6.88-3.75,6.25-6.88,8.75-9.38,8.75s-5-2.5-9.37-8.75c-.63-.63-1.25-2.5-1.88-2.5a8.56,8.56,0,0,0-1.87-2.5c-3.75-5-6.25-7.5-10.63-7.5h-50a8.54,8.54,0,0,1-8.75-8.75V19.13c0-5,4.38-8.75,9.38-8.75h145c5,0,9.37,3.74,9.37,8.75V132.25Z"/>
      <path d="M34.75,79.13a10,10,0,1,0,10-10,10,10,0,0,0-10,10Zm46.87,0a10,10,0,1,0,10-10,10,10,0,0,0-10,10Zm46.25,0a10,10,0,1,0,10-10A10,10,0,0,0,127.87,79.13Z"/>
    </g>
  </g>
</svg>
