<?xml version="1.0" standalone="no"?><!DOCTYPE svg PUBLIC "-//W3C//DTD SVG 1.1//EN" "http://www.w3.org/Graphics/SVG/1.1/DTD/svg11.dtd"><svg t="1565086914151" class="icon" viewBox="0 0 1024 1024" version="1.1" xmlns="http://www.w3.org/2000/svg" p-id="1599" xmlns:xlink="http://www.w3.org/1999/xlink" width="200" height="200"><defs><style type="text/css"></style></defs><path d="M512.06144 864.08192c-88.40192 0-178.47808-43.12064-182.272-44.9536-71.33696-35.62496-127.49824-63.68256-127.49824-135.53664v-163.25632l226.944 78.44864c49.93024 22.28736 117.2224 21.60128 163.87072 0.71168l228.49024-79.17056v163.26656c0 71.22944-61.16864 102.09792-125.9264 134.77376-4.77184 2.41152-91.10016 45.71648-183.60832 45.71648z m-266.43968-282.94144v102.4512c0 43.2384 31.66208 60.88704 103.29088 96.66048 0.59392 0.28672 84.85888 40.50432 163.15392 40.50432 82.24768 0 162.05312-40.0384 162.85184-40.44288 66.4576-33.536 103.35744-54.22592 103.35744-96.7168V581.1712l-169.216 58.56256c-54.02624 24.40704-138.55744 25.03168-195.7888-0.71168l-167.6544-57.87136 0.00512-0.01024z" p-id="1600"></path><path d="M886.75328 546.85184c-28.49792 0-50.82112-21.2992-50.82112-48.4864V445.51168l-251.84256 87.04c-39.2192 18.16576-105.01632 18.16576-144.18944 0l-335.1552-115.58912c-33.17248-16.38912-38.15936-38.656-38.18496-50.46784-0.01536-11.8272 4.90496-34.1504 38.11328-50.72896l334.99136-141.12768c18.56-9.28256 44.67712-14.70976 72.2944-14.70976 27.61216 0 53.74976 5.4272 73.58976 15.2576l332.45696 140.00128c33.72544 16.8704 39.10656 38.5024 39.41888 49.93536 0.26624 9.24672-2.38592 25.55392-20.54144 40.13056v93.12256c0 26.7264-22.48192 48.47616-50.12992 48.47616z m-7.49568-162.16064v113.67424c0.0256 6.84544 14.3104 6.7072 14.30016 0v-117.0944l10.88512-6.24128c7.64416-4.3776 9.58464-8.01792 9.6768-8.75008-0.09728-0.93184-2.944-6.10304-14.24384-11.78624l-332.35968-139.94496c-29.9776-14.75584-82.35008-14.2336-109.7984-0.5632L122.76224 355.0976c-10.4192 5.25312-12.8768 10.51648-12.8768 11.30496 0 0.76288 2.29888 5.64224 12.91264 11.14112l334.61248 115.36384c27.60704 13.18912 81.49504 13.19936 109.19424-0.00512l2.24768-0.92672 310.40512-107.28448zM886.75328 742.89152c-25.46688 0-45.39904-18.90816-45.39904-43.05408l0.51712-4.0448 13.93152-54.0928c1.3056-15.39072 14.68416-27.53536 30.95552-27.53536 15.98976 0 29.1328 12.17024 30.40256 27.56608l14.31552 58.12224c-0.00512 23.72096-20.0704 43.04384-44.7232 43.03872z m-12.78464-41.50784c0.90112 5.15584 6.19008 9.0112 12.78464 9.0112 6.12864 0 11.22304-3.92704 12.09344-9.02144l-12.3904-48.49152-12.48768 48.50176z" p-id="1601"></path></svg>