<svg xmlns="http://www.w3.org/2000/svg" width="168.71" height="160.91" viewBox="0 0 168.71 160.91">
  <defs>
    <style>
      .cls-1 {
        fill: #622644;
      }

      .cls-2 {
        fill: #f4367a;
      }
    </style>
  </defs>
  <title>退出</title>
  <g id="图层_2" data-name="图层 2">
    <g id="图层_1-2" data-name="图层 1">
      <path class="cls-1" d="M99.29,115V130.3h-.13c0,7.19-5.62,15.17-12.82,15.17l-28.52.14V15.31H87.65c7.2,0,11.51,8.11,11.51,15.3V45.92h19.23V19.1C118.39,7.2,107.27,0,95.24,0H23.16C11.12,0,0,8.37,0,20.28V141.16c0,11.9,11.12,19.75,23.16,19.75H95.37c12,0,23.16-7.19,23.16-19.1V115ZM25.77,102.43a3.62,3.62,0,0,1-2.61,1,3.8,3.8,0,1,1,0-7.59v-1c6.41-1.7,7.32-7.46,7.32-14.39s-.91-12.69-7.32-14.39v-.92a3.8,3.8,0,1,1,0-7.59,3.62,3.62,0,0,1,2.61,1c9,2.75,12.82,11.38,12.82,21.85S34.8,99.56,25.77,102.43Z"/>
      <path class="cls-2" d="M167.06,77.84C164.57,76.4,133.31,52.59,130.3,51a3.31,3.31,0,0,0-5,2.88v7.46h-34c-4.84,0-7.71,6.67-7.71,11.51v15.3c0,4.71,2.87,11.52,7.71,11.52h34v7.85a3.24,3.24,0,0,0,5,2.87c2-1.17,33.23-24.72,36.63-26.81a3.28,3.28,0,0,0,.13-5.76Z"/>
    </g>
  </g>
</svg>
