<svg xmlns="http://www.w3.org/2000/svg" width="160.59" height="160.59" viewBox="0 0 160.59 160.59">
  <defs>
    <style>
      .cls-1 {
        fill: #e4a920;
      }

      .cls-2 {
        fill: #4d3e2a;
      }
    </style>
  </defs>
  <title>全屏</title>
  <g id="图层_2" data-name="图层 2">
    <g id="图层_1-2" data-name="图层 1">
      <path class="cls-1" d="M135.67,17.8H93.77a7,7,0,0,0-7,6.89,7.11,7.11,0,0,0,7.17,7.17H119L93.77,57.07A7,7,0,1,0,103.71,67l25-25V67.19a7.05,7.05,0,0,0,6.9,7,7.13,7.13,0,0,0,7.17-7.17V24.93A7.13,7.13,0,0,0,135.67,17.8Z"/>
      <path class="cls-1" d="M66.66,128.73H41.59l25.23-25.21a7,7,0,0,0-9.94-9.94l-25,25V93.38a7,7,0,1,0-14.06.14v42.11A7.16,7.16,0,0,0,25,142.8H66.82a7,7,0,0,0,7-6.9,7.14,7.14,0,0,0-7.19-7.17Z"/>
      <path class="cls-2" d="M138.73,12.9a9,9,0,0,1,9,9V138.73a9,9,0,0,1-9,9H21.87a9,9,0,0,1-9-9V21.87a9,9,0,0,1,9-9H138.73m0-12.9H21.87A21.84,21.84,0,0,0,6.4,6.4,21.84,21.84,0,0,0,0,21.87V138.73a21.85,21.85,0,0,0,21.87,21.86H138.73a21.84,21.84,0,0,0,15.46-6.4,21.3,21.3,0,0,0,4.68-6.95,21.64,21.64,0,0,0,1.72-8.51V21.87a21.84,21.84,0,0,0-6.4-15.47,21.3,21.3,0,0,0-6.95-4.68A21.64,21.64,0,0,0,138.73,0Z"/>
    </g>
  </g>
</svg>
