<svg xmlns="http://www.w3.org/2000/svg" width="160.59" height="160.59" viewBox="0 0 160.59 160.59">
  <defs>
    <style>
      .cls-1 {
        fill: #e4a920;
      }

      .cls-2 {
        fill: #4d3e2a;
      }
    </style>
  </defs>
  <title>缩小</title>
  <g id="图层_2" data-name="图层 2">
    <g id="图层_1-2" data-name="图层 1">
      <path class="cls-1" d="M65.83,87.26H23.94a7,7,0,1,0,.13,14.06H49.15L23.94,126.54a7,7,0,0,0,9.94,9.94l25-25v25.2a7.05,7.05,0,0,0,6.89,7A7.13,7.13,0,0,0,73,136.52V94.39A7.13,7.13,0,0,0,65.83,87.26Z"/>
      <path class="cls-1" d="M136.5,59.68H111.42l25.24-25.21a7,7,0,0,0-9.94-9.94l-25,25V24.33a7.06,7.06,0,0,0-6.9-7,7.13,7.13,0,0,0-7.17,7.17V66.58a7.17,7.17,0,0,0,7.17,7.17h41.86a7,7,0,0,0,7-6.9,7.14,7.14,0,0,0-7.19-7.17Z"/>
      <path class="cls-2" d="M138.73,12.9a9,9,0,0,1,9,9V138.73a9,9,0,0,1-9,9H21.87a9,9,0,0,1-9-9V21.87a9,9,0,0,1,9-9H138.73m0-12.9H21.87A21.84,21.84,0,0,0,6.4,6.4,21.84,21.84,0,0,0,0,21.87V138.73a21.85,21.85,0,0,0,21.87,21.86H138.73a21.84,21.84,0,0,0,15.46-6.4,21.3,21.3,0,0,0,4.68-6.95,21.64,21.64,0,0,0,1.72-8.51V21.87a21.84,21.84,0,0,0-6.4-15.47,21.3,21.3,0,0,0-6.95-4.68A21.64,21.64,0,0,0,138.73,0Z"/>
    </g>
  </g>
</svg>
